<?xml version="1.0" encoding="utf-8"?>
<!-- Generator: Adobe Illustrator 24.0.1, SVG Export Plug-In . SVG Version: 6.00 Build 0)  -->
<svg version="1.1" id="Layer_1" xmlns="http://www.w3.org/2000/svg" xmlns:xlink="http://www.w3.org/1999/xlink" x="0px" y="0px"
	 viewBox="0 0 62 51" style="enable-background:new 0 0 62 51;" xml:space="preserve">
<style type="text/css">
	.st0{fill:#222222;}
</style>
<title>twitter-link-blue</title>
<path class="st0" d="M62,6.2c-2.3,1-4.8,1.7-7.3,2c2.7-1.6,4.6-4.1,5.6-7c-2.5,1.5-5.2,2.5-8.1,3.1c-4.8-5.1-12.9-5.4-18-0.6
	c-3.3,3.1-4.7,7.7-3.7,12.2C20.3,15.3,10.8,10.5,4.3,2.6c-3.4,5.8-1.7,13.3,3.9,17c-2-0.1-4-0.6-5.8-1.6c0,0.1,0,0.1,0,0.2
	c0,6.1,4.3,11.3,10.2,12.5c-1.1,0.3-2.2,0.4-3.3,0.4c-0.8,0-1.6-0.1-2.4-0.2c1.7,5.2,6.4,8.7,11.9,8.8C14.3,43.2,8.8,45.1,3,45.1
	c-1,0-2-0.1-3-0.2c5.8,3.7,12.6,5.7,19.5,5.7c23.4,0,36.2-19.4,36.2-36.2c0-0.6,0-1.1,0-1.6C58.1,11,60.3,8.8,62,6.2z"/>
</svg>
