<svg xmlns="http://www.w3.org/2000/svg" viewBox="0 0 380 380"><defs><style>.a{fill:#666;}</style></defs><title>chevron</title><path class="a" d="M246.618,190.019c-1.409-1.484-2.6-2.8-3.857-4.052Q167.382,110.957,91.968,35.979c-5.48-5.444-8.681-11.54-7.184-19.455a20.021,20.021,0,0,1,32.259-12.1,55.964,55.964,0,0,1,4.683,4.4q82.568,82.163,165.123,164.337c11.661,11.607,11.676,22.073.037,33.657Q203.8,289.512,120.744,372.231c-6.183,6.164-13.04,9.436-21.8,6.912A19.881,19.881,0,0,1,88.922,347.36a58.715,58.715,0,0,1,4.435-4.647Q168.036,268.4,242.723,194.1C243.983,192.841,245.182,191.524,246.618,190.019Z"/></svg>