<svg xmlns="http://www.w3.org/2000/svg" viewBox="0 0 584 140"><defs><style>.a,.b{fill:#fff;}.b{fill-rule:evenodd;}</style></defs><title>gaois-white</title><path class="a" d="M123.8,0H15.4A15.471,15.471,0,0,0,0,15.722V124.28A15.47,15.47,0,0,0,15.4,140H123.8c8.66,0,16.2-7.052,16.2-15.72V15.722C140,7.053,132.458,0,123.8,0ZM127,124.28c0,1.828-1.383,3.72-3.2,3.72H15.4a3.766,3.766,0,0,1-3.4-3.72V15.722A3.768,3.768,0,0,1,15.4,12H123.8c1.819,0,3.2,1.894,3.2,3.722Z"/><path class="a" d="M201.89,39.959c13.321,0,17.726,8.041,17.726,8.041H220V46.7c0-2.592,1.646-5.7,6.162-5.7H240V54h-4.921c-1.467,0-2.079.37-2.079,1.836V95.468c0,19.76-15.554,27.2-30.571,27.2A46.242,46.242,0,0,1,181.9,117.7l4.355-11.277a39.284,39.284,0,0,0,16.209,3.839c8.687,0,16.539-3.733,16.539-14.129v-2.7A17.971,17.971,0,0,0,218.479,90h-.221c-3.392,5-8.358,7.636-16.03,7.636-16.481,0-25.853-13.257-25.853-29.066S185.3,39.959,201.89,39.959Zm16.822,28.857c0-13.089-6.547-16.589-14.343-16.589-8.684,0-13.43,6.325-13.43,16.028,0,10.055,5.076,17.5,14.338,17.5C212.165,85.752,218.712,81.8,218.712,68.816Z"/><path class="a" d="M279.79,63H282v-.618c0-8.234-3.627-11.28-10.959-11.28-2.605,0-8.041.671-8.041,3.831V58H250V51.886c0-10.719,15.158-11.844,21.139-11.844,19.186,0,24.861,10.043,24.861,22.9V84.407A2.3,2.3,0,0,0,298.4,87H303V99H290.056c-5.3,0-7.327-3.031-7.327-6.41,0-1.477.108-2.59.108-2.59h-.243s-4.395,10.249-17.375,10.249c-10.274,0-19.639-6.327-19.639-17.831C245.58,64.349,270.407,63,279.79,63ZM268.819,89.131c7.662,0,13.181-8.125,13.181-15.124V73h-2.675c-7.438,0-19.25.845-19.25,8.862C260.075,85.7,262.941,89.131,268.819,89.131Z"/><path class="a" d="M340.176,40.042c17.617,0,31.614,12.526,31.614,30.134,0,17.718-14,30.145-31.614,30.145-17.483,0-31.48-12.427-31.48-30.145C308.7,52.568,322.693,40.042,340.176,40.042Zm0,48.071c9.361,0,17.156-7.218,17.156-17.937,0-10.607-7.8-17.949-17.156-17.949-9.248,0-17.043,7.342-17.043,17.949C323.133,80.9,330.928,88.113,340.176,88.113Z"/><path class="a" d="M385,56.069c0-1.7-.69-2.069-2.255-2.069H378V41h13.883c5.3,0,8.117,2.76,8.117,8.072V84.407c0,1.565.34,2.593,1.931,2.593H407V99H392.791C387.467,99,385,96.7,385,91.292ZM386,19h12V32H386Z"/><path class="a" d="M418.752,80.675s7.331,8.456,17.156,8.456c4.395,0,7.792-1.791,7.792-5.631,0-8.125-30.377-8.012-30.377-26.647,0-11.514,10.452-16.811,22.42-16.811,7.792,0,20.257,2.592,20.257,11.967V58H443V55.164c0-2.715-3.943-4.062-7.1-4.062-5.076,0-8.527,1.8-8.527,5.188,0,9.03,30.632,7.23,30.632,26.416,0,10.841-9.568,17.615-22.109,17.615-15.808,0-23.923-10.286-23.923-10.286Z"/><path class="a" d="M470,85h14V99H470Z"/><path class="a" d="M502,56.069c0-1.7-1.182-2.069-2.772-2.069H495V41h13.392c5.3,0,7.608,2.76,7.608,8.072V84.407A2.311,2.311,0,0,0,518.439,87H523V99H509.275c-5.3,0-7.275-2.3-7.275-7.708ZM503,19h12V32H503Z"/><path class="a" d="M558.51,40.042c16.469,0,25.5,12.246,25.5,27.481,0,1.7-.332,5.477-.332,5.477H543.937c1.126,10,8.589,15.283,17.267,15.283,9.269,0,16.159-6.506,16.159-6.506l5.985,9.891a35.087,35.087,0,0,1-23.162,8.675c-19.075,0-30.906-13.786-30.906-30.157C529.28,52.46,541.222,40.042,558.51,40.042ZM569.347,63c-.24-7-4.967-11.623-10.837-11.623C551.156,51.377,545.968,55,544.4,63Z"/><polygon class="b" points="102.851 58.902 76.902 50.48 76.902 27 63.52 27 63.52 46.137 43.272 39.565 39.011 52.568 98.589 71.909 102.851 58.902"/><polygon class="b" points="36.851 80.753 63.52 89.412 63.52 113 76.902 113 76.902 93.757 96.429 100.097 100.739 86.938 41.16 67.597 36.851 80.753"/></svg>