<svg version="1" xmlns="http://www.w3.org/2000/svg" width="1066.667" height="1066.667" viewBox="0 0 800.000000 800.000000"><path d="M351.5 161.6c0 37.2-.2 67.7-.5 67.8-.3.2-8.6-2.4-18.5-5.6-28.7-9.4-54.7-17.9-88.5-28.7-17.3-5.6-32.5-10.6-33.7-11.1-1.2-.5-2.4-.6-2.6-.2-.3.4-5.3 15.5-11.2 33.7-5.9 18.1-12.4 38.2-14.6 44.6-4.1 12.2-4.6 14.9-2.7 14.9.9 0 50.2 15.8 68.8 22 3 1 23.1 7.5 44.5 14.5 39.9 12.9 67.2 21.8 106 34.5 12.1 4 22.5 7.3 23 7.4 1 .2 64.5 20.9 75.5 24.6 8.4 2.8 62.4 20.3 63.5 20.6.6.1 9.9 3.2 20.8 6.7 13 4.3 20 6.1 20.2 5.3.2-.6 7-21.3 15-46 8.1-24.6 14.3-45.2 13.8-45.6-.4-.4-13.6-4.9-29.3-10-26.6-8.6-41.3-13.4-96-31.2-11.8-3.8-28.5-9.2-37-12-8.5-2.7-16.7-5.4-18.2-6l-2.8-1V94h-95.5v67.6zM189.1 393.8c-1.9 5.9-4.8 14.5-6.3 19.2-1.6 4.7-3 9.2-3.3 10-.2.8-4.2 13.2-8.9 27.5s-8.4 26-8.3 26.1c.1.1 15.7 5.2 34.7 11.4 19 6.1 39.9 13 46.5 15.2 6.6 2.2 12.5 4.1 13 4.2 1.1.2 46.5 15 76.5 24.8l18.5 6.1V706H447V569l2.3 1c1.2.5 17.7 5.9 36.7 12 19 6.2 48.9 15.9 66.5 21.6 17.6 5.7 32.3 10.4 32.7 10.4.3 0 4.7-12.5 9.7-27.8 5-15.2 11.7-35.9 15.1-46 3.3-10.1 6-18.7 6-19.1 0-.5-2.8-1.7-6.2-2.9-3.5-1.1-20.5-6.6-37.8-12.2-17.3-5.6-35.3-11.5-40-13-4.7-1.5-22.7-7.4-40-13s-36-11.7-41.5-13.5c-5.5-1.8-24.2-7.9-41.5-13.5s-35.3-11.4-40-13c-38.2-12.6-82.9-27-83.9-27-.6 0-1.9-.4-2.9-.9-1.5-.9-20.2-7.2-22.7-7.7-.5-.1-12-3.8-25.5-8.2-32.4-10.7-40.3-13.2-41-13.2-.3 0-2.1 4.9-3.9 10.8z"/></svg>