<svg xmlns="http://www.w3.org/2000/svg" viewBox="0 0 62.011 51.01"><defs><style>.a{fill:#333;}</style></defs><title>twitter-link-blue</title><path class="a" d="M62,6.2a25.3,25.3,0,0,1-7.3,2,12.76,12.76,0,0,0,5.593-7.039,25.44,25.44,0,0,1-8.078,3.089,12.731,12.731,0,0,0-21.676,11.6A36.114,36.114,0,0,1,4.316,2.561,12.731,12.731,0,0,0,8.253,19.546,12.655,12.655,0,0,1,2.49,17.952c0,.055,0,.109,0,.161a12.732,12.732,0,0,0,10.2,12.473,12.658,12.658,0,0,1-3.348.447,12.846,12.846,0,0,1-2.395-.226,12.738,12.738,0,0,0,11.883,8.831,25.529,25.529,0,0,1-15.8,5.446A25.753,25.753,0,0,1,0,44.905a35.994,35.994,0,0,0,19.5,5.714c23.4,0,36.192-19.381,36.192-36.191,0-.552-.014-1.1-.039-1.645A25.8,25.8,0,0,0,62,6.2Z"/></svg>